<?xml version="1.0" encoding="UTF-8"?>
<svg xmlns="http://www.w3.org/2000/svg" width="1450" height="860" viewBox="0 0 1450 860">
<defs>
  <style>
    text { font-family: "Malgun Gothic", "Apple SD Gothic Neo", "Noto Sans CJK KR", Arial, sans-serif; fill: #111827; }
    .title { font-size: 27px; font-weight: 700; fill: #0B2A5B; }
    .subtitle { font-size: 15px; fill: #4B5563; }
    .label { font-size: 15px; fill: #111827; }
    .small { font-size: 12px; fill: #374151; }
    .tiny { font-size: 10px; fill: #4B5563; }
    .box-title { font-size: 16px; font-weight: 700; fill: #111827; }
    .box-text { font-size: 13px; fill: #374151; }
  </style>
  <marker id="arrow" markerWidth="11" markerHeight="11" refX="9" refY="5.5" orient="auto">
    <path d="M0,0 L11,5.5 L0,11 Z" fill="#0B2A5B" />
  </marker>
  <marker id="arrow-gray" markerWidth="10" markerHeight="10" refX="8.5" refY="5" orient="auto">
    <path d="M0,0 L10,5 L0,10 Z" fill="#6B7280" />
  </marker>
  <filter id="shadow" x="-10%" y="-10%" width="120%" height="120%">
    <feDropShadow dx="0" dy="2" stdDeviation="2" flood-color="#9CA3AF" flood-opacity="0.25"/>
  </filter>
</defs>
<text x="725.0" y="48.0" class="title" text-anchor="middle">투자가치 ILP와 PI ILP의 성과 비교</text>
<text x="725.0" y="76.0" class="subtitle" text-anchor="middle">경제성 단일지표와 다기준 PI 적용 시 포트폴리오 성과의 차이</text>
<text x="370.0" y="113.0" class="box-title" text-anchor="middle">투자가치</text>
<line x1="100" y1="380" x2="640" y2="380" stroke="#111827" stroke-width="1.6"/>
<line x1="100" y1="135" x2="100" y2="380" stroke="#111827" stroke-width="1.6"/>
<text x="100.0" y="127.0" class="small" text-anchor="end" style="font-weight:700">억원</text>
<line x1="100" y1="380.0" x2="640" y2="380.0" stroke="#E5E7EB" stroke-width="1"/>
<text x="92.0" y="384.0" class="tiny" text-anchor="end">0</text>
<line x1="100" y1="318.75" x2="640" y2="318.75" stroke="#E5E7EB" stroke-width="1"/>
<text x="92.0" y="322.8" class="tiny" text-anchor="end">500</text>
<line x1="100" y1="257.5" x2="640" y2="257.5" stroke="#E5E7EB" stroke-width="1"/>
<text x="92.0" y="261.5" class="tiny" text-anchor="end">1000</text>
<line x1="100" y1="196.25" x2="640" y2="196.25" stroke="#E5E7EB" stroke-width="1"/>
<text x="92.0" y="200.2" class="tiny" text-anchor="end">1500</text>
<line x1="100" y1="135.0" x2="640" y2="135.0" stroke="#E5E7EB" stroke-width="1"/>
<text x="92.0" y="139.0" class="tiny" text-anchor="end">2000</text>
<rect x="110.0" y="210.9" width="255.0" height="169.1" fill="#2EAD72" opacity="0.88"/>
<text x="237.5" y="204.9" class="tiny" text-anchor="middle" style="font-weight:700">1380</text>
<text x="237.5" y="398.0" class="tiny" text-anchor="middle">IV ILP</text>
<rect x="375.0" y="222.1" width="255.0" height="157.9" fill="#2EAD72" opacity="0.88"/>
<text x="502.5" y="216.1" class="tiny" text-anchor="middle" style="font-weight:700">1289</text>
<text x="502.5" y="398.0" class="tiny" text-anchor="middle">PI ILP</text>
<text x="1060.0" y="113.0" class="box-title" text-anchor="middle">SAIDI 저감량</text>
<line x1="790" y1="380" x2="1330" y2="380" stroke="#111827" stroke-width="1.6"/>
<line x1="790" y1="135" x2="790" y2="380" stroke="#111827" stroke-width="1.6"/>
<text x="790.0" y="127.0" class="small" text-anchor="end" style="font-weight:700">분</text>
<line x1="790" y1="380.0" x2="1330" y2="380.0" stroke="#E5E7EB" stroke-width="1"/>
<text x="782.0" y="384.0" class="tiny" text-anchor="end">0</text>
<line x1="790" y1="318.75" x2="1330" y2="318.75" stroke="#E5E7EB" stroke-width="1"/>
<text x="782.0" y="322.8" class="tiny" text-anchor="end">0</text>
<line x1="790" y1="257.5" x2="1330" y2="257.5" stroke="#E5E7EB" stroke-width="1"/>
<text x="782.0" y="261.5" class="tiny" text-anchor="end">0</text>
<line x1="790" y1="196.25" x2="1330" y2="196.25" stroke="#E5E7EB" stroke-width="1"/>
<text x="782.0" y="200.2" class="tiny" text-anchor="end">1</text>
<line x1="790" y1="135.0" x2="1330" y2="135.0" stroke="#E5E7EB" stroke-width="1"/>
<text x="782.0" y="139.0" class="tiny" text-anchor="end">1</text>
<rect x="800.0" y="205.9" width="255.0" height="174.1" fill="#F2994A" opacity="0.88"/>
<text x="927.5" y="199.9" class="tiny" text-anchor="middle" style="font-weight:700">0.64</text>
<text x="927.5" y="398.0" class="tiny" text-anchor="middle">IV ILP</text>
<rect x="1065.0" y="175.1" width="255.0" height="204.9" fill="#F2994A" opacity="0.88"/>
<text x="1192.5" y="169.1" class="tiny" text-anchor="middle" style="font-weight:700">0.75</text>
<text x="1192.5" y="398.0" class="tiny" text-anchor="middle">PI ILP</text>
<text x="370.0" y="488.0" class="box-title" text-anchor="middle">고장예측대수 저감</text>
<line x1="100" y1="755" x2="640" y2="755" stroke="#111827" stroke-width="1.6"/>
<line x1="100" y1="510" x2="100" y2="755" stroke="#111827" stroke-width="1.6"/>
<text x="100.0" y="502.0" class="small" text-anchor="end" style="font-weight:700">대</text>
<line x1="100" y1="755.0" x2="640" y2="755.0" stroke="#E5E7EB" stroke-width="1"/>
<text x="92.0" y="759.0" class="tiny" text-anchor="end">0</text>
<line x1="100" y1="693.75" x2="640" y2="693.75" stroke="#E5E7EB" stroke-width="1"/>
<text x="92.0" y="697.8" class="tiny" text-anchor="end">50</text>
<line x1="100" y1="632.5" x2="640" y2="632.5" stroke="#E5E7EB" stroke-width="1"/>
<text x="92.0" y="636.5" class="tiny" text-anchor="end">100</text>
<line x1="100" y1="571.25" x2="640" y2="571.25" stroke="#E5E7EB" stroke-width="1"/>
<text x="92.0" y="575.2" class="tiny" text-anchor="end">150</text>
<line x1="100" y1="510.0" x2="640" y2="510.0" stroke="#E5E7EB" stroke-width="1"/>
<text x="92.0" y="514.0" class="tiny" text-anchor="end">200</text>
<rect x="110.0" y="628.8" width="255.0" height="126.2" fill="#7B61FF" opacity="0.88"/>
<text x="237.5" y="622.8" class="tiny" text-anchor="middle" style="font-weight:700">103</text>
<text x="237.5" y="773.0" class="tiny" text-anchor="middle">IV ILP</text>
<rect x="375.0" y="582.5" width="255.0" height="172.5" fill="#7B61FF" opacity="0.88"/>
<text x="502.5" y="576.5" class="tiny" text-anchor="middle" style="font-weight:700">141</text>
<text x="502.5" y="773.0" class="tiny" text-anchor="middle">PI ILP</text>
<text x="1060.0" y="488.0" class="box-title" text-anchor="middle">설비 단위 PI</text>
<line x1="790" y1="755" x2="1330" y2="755" stroke="#111827" stroke-width="1.6"/>
<line x1="790" y1="510" x2="790" y2="755" stroke="#111827" stroke-width="1.6"/>
<text x="790.0" y="502.0" class="small" text-anchor="end" style="font-weight:700">PI</text>
<line x1="790" y1="755.0" x2="1330" y2="755.0" stroke="#E5E7EB" stroke-width="1"/>
<text x="782.0" y="759.0" class="tiny" text-anchor="end">0</text>
<line x1="790" y1="693.75" x2="1330" y2="693.75" stroke="#E5E7EB" stroke-width="1"/>
<text x="782.0" y="697.8" class="tiny" text-anchor="end">750</text>
<line x1="790" y1="632.5" x2="1330" y2="632.5" stroke="#E5E7EB" stroke-width="1"/>
<text x="782.0" y="636.5" class="tiny" text-anchor="end">1500</text>
<line x1="790" y1="571.25" x2="1330" y2="571.25" stroke="#E5E7EB" stroke-width="1"/>
<text x="782.0" y="575.2" class="tiny" text-anchor="end">2250</text>
<line x1="790" y1="510.0" x2="1330" y2="510.0" stroke="#E5E7EB" stroke-width="1"/>
<text x="782.0" y="514.0" class="tiny" text-anchor="end">3000</text>
<rect x="800.0" y="555.7" width="255.0" height="199.3" fill="#2F80ED" opacity="0.88"/>
<text x="927.5" y="549.7" class="tiny" text-anchor="middle" style="font-weight:700">2440</text>
<text x="927.5" y="773.0" class="tiny" text-anchor="middle">IV ILP</text>
<rect x="1065.0" y="535.7" width="255.0" height="219.3" fill="#2F80ED" opacity="0.88"/>
<text x="1192.5" y="529.7" class="tiny" text-anchor="middle" style="font-weight:700">2685</text>
<text x="1192.5" y="773.0" class="tiny" text-anchor="middle">PI ILP</text>
</svg>
